<?xml version="1.0" standalone="no"?>
<!DOCTYPE svg PUBLIC "-//W3C//DTD SVG 20010904//EN"
 "http://www.w3.org/TR/2001/REC-SVG-20010904/DTD/svg10.dtd">
<svg version="1.0" xmlns="http://www.w3.org/2000/svg"
 width="500.000000pt" height="500.000000pt" viewBox="0 0 500.000000 500.000000"
 preserveAspectRatio="xMidYMid meet">

<g transform="translate(0.000000,500.000000) scale(0.100000,-0.100000)"
fill="#000000" stroke="none">
<path d="M3535 3770 c-11 -5 -41 -9 -66 -9 -40 -1 -91 -17 -204 -66 -83 -35
-135 -53 -130 -44 6 9 -48 -15 -111 -49 -67 -37 -134 -86 -134 -98 0 -7 -9
-20 -21 -28 -12 -8 -18 -19 -14 -26 4 -7 -10 -29 -34 -54 -41 -42 -41 -42 -21
-61 19 -17 21 -17 60 9 22 14 45 26 51 26 7 0 59 25 118 54 118 61 241 110
314 126 27 6 64 17 82 24 18 8 75 19 126 26 71 9 97 17 107 31 7 11 19 19 25
19 16 0 38 56 31 78 -5 15 -4 15 6 -1 6 -9 8 -23 4 -30 -5 -9 -4 -9 5 -1 10 9
10 17 1 34 -6 12 -14 19 -17 16 -3 -3 -23 4 -44 14 -40 21 -99 25 -134 10z"/>
<path d="M1860 3624 c62 -11 111 -28 121 -40 8 -10 2 -9 -21 3 -41 20 -98 26
-225 25 -117 -2 -228 -18 -270 -40 -38 -20 -144 -42 -163 -34 -11 4 -13 1 -7
-8 5 -8 4 -11 -2 -7 -28 17 -223 -118 -223 -155 0 -10 -5 -29 -11 -40 -7 -14
-8 -23 -1 -27 5 -3 13 -32 17 -64 7 -51 10 -58 29 -55 28 4 36 16 36 56 0 20
5 32 14 32 7 0 19 7 27 16 7 9 48 33 90 54 67 34 137 54 299 85 83 15 208 27
280 25 46 -1 58 -5 76 -27 23 -29 59 -26 69 8 4 10 12 19 18 19 20 0 41 40 28
53 -16 16 -13 30 4 23 25 -9 17 18 -12 46 -42 38 -66 48 -135 53 -35 2 -52 2
-38 -1z m161 -71 c13 -16 12 -17 -3 -4 -10 7 -18 15 -18 17 0 8 8 3 21 -13z"/>
<path d="M3452 3398 c-7 -7 -20 -13 -28 -13 -36 0 -179 -256 -208 -371 -72
-295 -70 -351 12 -436 42 -43 50 -47 109 -54 l64 -6 71 48 c64 45 74 56 113
135 48 94 66 158 85 292 14 97 7 116 -38 120 -12 1 -22 5 -22 9 0 12 -44 5
-62 -10 -14 -11 -18 -12 -18 -2 0 10 -3 10 -14 1 -16 -14 -25 -57 -30 -151 -4
-63 -3 -64 9 -30 17 45 18 35 3 -32 -10 -46 -12 -50 -19 -28 l-7 25 -1 -26
c-2 -41 -48 -133 -83 -164 -28 -26 -32 -27 -43 -11 -24 32 -27 98 -6 153 10
28 17 54 15 56 -7 6 36 157 53 190 9 17 12 40 8 57 -4 16 -2 37 3 46 7 12 6
24 -1 35 -8 12 -4 31 14 75 13 33 22 63 21 68 -1 4 3 14 9 22 14 17 7 18 -9 2z
m88 -322 c0 -3 -4 -8 -10 -11 -5 -3 -10 -1 -10 4 0 6 5 11 10 11 6 0 10 -2 10
-4z m-23 -58 c-3 -7 -5 -2 -5 12 0 14 2 19 5 13 2 -7 2 -19 0 -25z"/>
<path d="M1586 3173 c-4 -4 -15 -8 -24 -8 -21 0 -70 -90 -108 -195 -23 -63
-27 -92 -28 -185 -1 -98 2 -115 24 -158 50 -98 102 -131 210 -131 81 -1 101 9
188 88 42 38 95 142 112 216 12 56 11 282 -2 295 -3 4 -30 8 -59 9 -63 4 -90
-17 -89 -67 0 -18 -3 -75 -7 -128 -6 -72 -13 -102 -26 -117 -11 -12 -16 -25
-13 -30 10 -17 -84 -122 -110 -122 -27 0 -54 24 -54 50 0 10 -5 20 -10 22 -6
2 -10 42 -10 93 1 173 -1 200 -10 203 -14 5 -12 33 6 83 15 41 26 89 20 89 -2
0 -6 -3 -10 -7z"/>
<path d="M1793 3025 c0 -22 2 -30 4 -17 2 12 2 30 0 40 -3 9 -5 -1 -4 -23z"/>
<path d="M2484 2495 c-2 -11 -8 -137 -13 -279 -7 -231 -6 -261 8 -277 9 -9 24
-29 34 -43 21 -30 38 -32 71 -11 23 16 41 63 49 135 8 63 -14 293 -29 308 -8
7 -14 24 -14 38 0 14 -6 24 -14 24 -17 0 -23 16 -32 80 -6 45 -9 49 -31 48
-15 -2 -26 -10 -29 -23z"/>
<path d="M3424 1744 c-12 -8 -35 -16 -51 -18 -16 -2 -56 -17 -89 -34 -107 -53
-466 -150 -622 -168 -20 -2 -47 -6 -59 -9 -24 -6 -291 -27 -308 -25 -5 1 -100
4 -210 7 -115 2 -205 9 -212 15 -26 21 -58 0 -91 -62 -29 -56 -31 -63 -18 -88
10 -18 30 -33 63 -44 42 -15 81 -17 323 -12 172 3 303 10 350 19 l75 14 -90
-4 c-85 -4 -86 -4 -28 5 35 5 67 11 72 14 5 4 20 2 33 -3 15 -5 66 -2 143 9
149 22 211 37 253 61 18 11 46 19 62 19 16 0 40 4 55 10 17 6 24 6 20 0 -4 -6
2 -6 17 0 13 6 35 15 51 21 85 34 187 90 187 103 0 8 13 22 29 32 17 10 27 23
25 33 -2 10 9 24 28 36 45 28 55 49 35 69 -18 19 -16 19 -43 0z"/>
</g>
</svg>
